{"title":"The_Lady_Eve_(1941)_The_Criterion_Collection_mkv_tsantilas","uid":11613272,"size":1421756302,"categoryP":"other","categoryS":"other","magnet":"?xt=urn:btih:fdee7808e0fb4301f111b42fca0e4cbd1fd84367&amp;dn=The_Lady_Eve_%281941%29_The_Criterion_Collection_mkv_tsantilas&amp;tr=udp%3A%2F%2Ftracker.openbittorrent.com%3A80&amp;tr=udp%3A%2F%2Fopen.demonii.com%3A1337&amp;tr=udp%3A%2F%2Ftracker.coppersurfer.tk%3A6969&amp;tr=udp%3A%2F%2Fexodus.desync.com%3A6969","seeders":7,"leechers":2,"uploader":"tsantilas","files":-1,"time":1417484510,"description":"The Lady Eve is a 1941 American screwball comedy film written and directed by Preston Sturges which stars Barbara Stanwyck and Henry Fonda. It was one of the four films in which Barbara Stanwyck starred back in 1941.\n\nPlot: Returning from a year up the Amazon studying snakes, the rich but unsophisticated Charles Pike (Henry Fonda) meets con-artist Jean Harrington (Barbara Stanwyck) on a ship. They fall in love, but a misunderstanding causes them to split on bad terms. To get back at him, Jean disguises herself as an English lady, and comes back to tease and torment him.\n\nGeneral\nUnique ID                                : 88522188081959102325718870062177005879 (0x4298C0D6C279419AED6868CC046D3137)\nComplete name                            : The Lady Eve (1941).mkv\nFormat                                   : Matroska\nFormat version                           : Version 2\nFile size                                : 1.31 GiB\nDuration                                 : 1h 33mn\nOverall bit rate                         : 2 001 Kbps\nWriting application                      : HandBrake 0.9.9\nWriting library                          : libmkv 0.6.5\n\nVideo\nID                                       : 1\nFormat                                   : AVC\nFormat/Info                              : Advanced Video Codec\nFormat profile                           : &lt;a class=&quot;__cf_email__&quot; href=&quot;/cdn-cgi/l/email-protection&quot; data-cfemail=&quot;5c14353b341c1068726d&quot;&gt;[email&amp;#160;protected]&lt;/a&gt;&lt;script cf-hash='f9e31' type=&quot;text/javascript&quot;&gt;\n/* &lt;![CDATA[ */!function(){try{var t=&quot;currentScript&quot;in document?document.currentScript:function(){for(var t=document.getElementsByTagName(&quot;script&quot;),e=t.length;e--;)if(t[e].getAttribute(&quot;cf-hash&quot;))return t[e]}();if(t&amp;&amp;t.previousSibling){var e,r,n,i,c=t.previousSibling,a=c.getAttribute(&quot;data-cfemail&quot;);if(a){for(e=&quot;&quot;,r=parseInt(a.substr(0,2),16),n=2;a.length-n;n+=2)i=parseInt(a.substr(n,2),16)^r,e+=String.fromCharCode(i);e=document.createTextNode(e),c.parentNode.replaceChild(e,c)}}}catch(u){}}();/* ]]&gt; */&lt;/script&gt;\nFormat settings, CABAC                   : Yes\nFormat settings, ReFrames                : 4 frames\nCodec ID                                 : V_MPEG4/ISO/AVC\nDuration                                 : 1h 33mn\nBit rate                                 : 1 900 Kbps\nWidth                                    : 720 pixels\nHeight                                   : 544 pixels\nDisplay aspect ratio                     : 4:3\nFrame rate mode                          : Constant\nFrame rate                               : 29.970 fps\nColor space                              : YUV\nChroma subsampling                       : 4:2:0\nBit depth                                : 8 bits\nScan type                                : Progressive\nBits/(Pixel*Frame)                       : 0.162\nStream size                              : 1.22 GiB (93%)\nWriting library                          : x264 core 130 r2273 b3065e6\nEncoding settings                        : cabac=1 / ref=3 / deblock=1:0:0 / analyse=0x3:0x113 / me=hex / subme=7 / psy=1 / psy_rd=1.00:0.00 / mixed_ref=1 / me_range=16 / chroma_me=1 / trellis=1 / 8x8dct=1 / cqm=0 / deadzone=21,11 / fast_pskip=1 / chroma_qp_offset=-2 / threads=3 / lookahead_threads=1 / sliced_threads=0 / nr=0 / decimate=1 / interlaced=0 / bluray_compat=0 / constrained_intra=0 / bframes=3 / b_pyramid=2 / b_adapt=1 / b_bias=0 / direct=1 / weightb=1 / open_gop=0 / weightp=2 / keyint=240 / keyint_min=24 / scenecut=40 / intra_refresh=0 / rc_lookahead=40 / rc=2pass / mbtree=1 / bitrate=1900 / ratetol=1.0 / qcomp=0.60 / qpmin=0 / qpmax=69 / qpstep=4 / cplxblur=20.0 / qblur=0.5 / vbv_maxrate=62500 / vbv_bufsize=78125 / nal_hrd=none / ip_ratio=1.40 / aq=1:1.00\nLanguage                                 : English\nDefault                                  : Yes\nForced                                   : No\nColor primaries                          : BT.601 NTSC\nTransfer characteristics                 : BT.709\nMatrix coefficients                      : BT.601\n\nAudio\nID                                       : 2\nFormat                                   : AC-3\nFormat/Info                              : Audio Coding 3\nMode extension                           : CM (complete main)\nFormat settings, Endianness              : Big\nCodec ID                                 : A_AC3\nDuration                                 : 1h 33mn\nBit rate mode                            : Constant\nBit rate                                 : 96.0 Kbps\nChannel(s)                               : 1 channel\nChannel positions                        : Front: C\nSampling rate                            : 48.0 KHz\nBit depth                                : 16 bits\nCompression mode                         : Lossy\nStream size                              : 64.5 MiB (5%)\nLanguage                                 : English\nDefault                                  : Yes\nForced                                   : No\n\nMenu\n00:00:00.000                             : Chapter 1\n00:01:28.988                             : Chapter 2\n00:03:18.798                             : Chapter 3\n00:04:57.664                             : Chapter 4\n00:08:38.017                             : Chapter 5\n00:12:35.421                             : Chapter 6\n00:17:52.871                             : Chapter 7\n00:23:58.770                             : Chapter 8\n00:26:55.213                             : Chapter 9\n00:29:04.776                             : Chapter 10\n00:31:44.736                             : Chapter 11\n00:38:33.711                             : Chapter 12\n00:40:38.102                             : Chapter 13\n00:43:21.932                             : Chapter 14\n00:49:50.253                             : Chapter 15\n00:51:32.589                             : Chapter 16\n00:54:26.463                             : Chapter 17\n00:58:26.002                             : Chapter 18\n01:00:46.175                             : Chapter 19\n01:04:56.192                             : Chapter 20\n01:09:33.369                             : Chapter 21\n01:12:43.692                             : Chapter 22\n01:17:06.755                             : Chapter 23\n01:19:48.250                             : Chapter 24\n01:26:43.531                             : Chapter 25\n01:30:13.408                             : Chapter 26\n\nSource: DVD Fullscreen 4:3 (1,33:1)","torrent":{"xt":"urn:btih:fdee7808e0fb4301f111b42fca0e4cbd1fd84367","amp;dn":"The_Lady_Eve_%281941%29_The_Criterion_Collection_mkv_tsantilas","amp;tr":["udp%3A%2F%2Ftracker.openbittorrent.com%3A80","udp%3A%2F%2Fopen.demonii.com%3A1337","udp%3A%2F%2Ftracker.coppersurfer.tk%3A6969","udp%3A%2F%2Fexodus.desync.com%3A6969"],"infoHash":"fdee7808e0fb4301f111b42fca0e4cbd1fd84367","infoHashBuffer":{"type":"Buffer","data":[253,238,120,8,224,251,67,1,241,17,180,47,202,14,76,189,31,216,67,103]},"announce":[],"urlList":[]}}